<mxfile host="app.diagrams.net" agent="Mozilla/5.0 (Windows NT 10.0; Win64; x64) AppleWebKit/537.36 (KHTML, like Gecko) Chrome/136.0.0.0 Safari/537.36 Edg/136.0.0.0" version="27.0.1">
  <diagram name="PÃ¡gina-1" id="o4K2YFYTn6cbgYB524_O">
    <mxGraphModel dx="1729" dy="2191" grid="1" gridSize="10" guides="1" tooltips="1" connect="1" arrows="1" fold="1" page="1" pageScale="1" pageWidth="827" pageHeight="1169" math="0" shadow="0">
      <root>
        <mxCell id="0" />
        <mxCell id="1" parent="0" />
        <mxCell id="eJLFgSkFlAxGA1zm92NA-1" value="&lt;span style=&quot;font-weight: normal;&quot;&gt;&lt;font style=&quot;font-size: 13px;&quot;&gt;Books&lt;/font&gt;&lt;/span&gt;" style="swimlane;whiteSpace=wrap;html=1;startSize=20;" vertex="1" parent="1">
          <mxGeometry x="320" y="-730" width="200" height="190" as="geometry" />
        </mxCell>
        <mxCell id="eJLFgSkFlAxGA1zm92NA-2" value="ID (INTEGER, PRIMARY KEY)" style="text;strokeColor=none;fillColor=none;html=1;fontSize=13;fontStyle=0;verticalAlign=middle;align=left;" vertex="1" parent="eJLFgSkFlAxGA1zm92NA-1">
          <mxGeometry y="20" width="200" height="20" as="geometry" />
        </mxCell>
        <mxCell id="eJLFgSkFlAxGA1zm92NA-3" value="Title (TEXT)" style="text;strokeColor=none;fillColor=none;html=1;fontSize=13;fontStyle=0;verticalAlign=middle;align=left;labelPosition=center;verticalLabelPosition=middle;" vertex="1" parent="eJLFgSkFlAxGA1zm92NA-1">
          <mxGeometry y="50" width="200" height="20" as="geometry" />
        </mxCell>
        <mxCell id="eJLFgSkFlAxGA1zm92NA-4" value="AuthorID (INTEGER, Foreign Key)" style="text;strokeColor=none;fillColor=none;html=1;fontSize=13;fontStyle=0;verticalAlign=middle;align=left;" vertex="1" parent="eJLFgSkFlAxGA1zm92NA-1">
          <mxGeometry y="80" width="200" height="20" as="geometry" />
        </mxCell>
        <mxCell id="eJLFgSkFlAxGA1zm92NA-5" value="Genre (TEXT)" style="text;strokeColor=none;fillColor=none;html=1;fontSize=13;fontStyle=0;verticalAlign=middle;align=left;" vertex="1" parent="eJLFgSkFlAxGA1zm92NA-1">
          <mxGeometry y="110" width="200" height="20" as="geometry" />
        </mxCell>
        <mxCell id="eJLFgSkFlAxGA1zm92NA-6" value="Publication_Year (INTEGER)" style="text;strokeColor=none;fillColor=none;html=1;fontSize=13;fontStyle=0;verticalAlign=middle;align=left;" vertex="1" parent="eJLFgSkFlAxGA1zm92NA-1">
          <mxGeometry y="140" width="200" height="20" as="geometry" />
        </mxCell>
        <mxCell id="eJLFgSkFlAxGA1zm92NA-7" value="Price (REAL)" style="text;strokeColor=none;fillColor=none;html=1;fontSize=13;fontStyle=0;verticalAlign=middle;align=left;" vertex="1" parent="eJLFgSkFlAxGA1zm92NA-1">
          <mxGeometry y="170" width="200" height="20" as="geometry" />
        </mxCell>
        <mxCell id="eJLFgSkFlAxGA1zm92NA-8" value="&lt;span style=&quot;font-weight: normal;&quot;&gt;&lt;font style=&quot;font-size: 13px;&quot;&gt;Authors&lt;/font&gt;&lt;/span&gt;" style="swimlane;whiteSpace=wrap;html=1;startSize=20;" vertex="1" parent="1">
          <mxGeometry x="320" y="-890" width="200" height="130" as="geometry" />
        </mxCell>
        <mxCell id="eJLFgSkFlAxGA1zm92NA-9" value="ID (INTEGER, Primary Key)" style="text;strokeColor=none;fillColor=none;html=1;fontSize=13;fontStyle=0;verticalAlign=middle;align=left;" vertex="1" parent="eJLFgSkFlAxGA1zm92NA-8">
          <mxGeometry y="20" width="200" height="20" as="geometry" />
        </mxCell>
        <mxCell id="eJLFgSkFlAxGA1zm92NA-10" value="FirstName (TEXT)" style="text;strokeColor=none;fillColor=none;html=1;fontSize=13;fontStyle=0;verticalAlign=middle;align=left;labelPosition=center;verticalLabelPosition=middle;" vertex="1" parent="eJLFgSkFlAxGA1zm92NA-8">
          <mxGeometry y="50" width="200" height="20" as="geometry" />
        </mxCell>
        <mxCell id="eJLFgSkFlAxGA1zm92NA-11" value="LastName (TEXT)" style="text;strokeColor=none;fillColor=none;html=1;fontSize=13;fontStyle=0;verticalAlign=middle;align=left;" vertex="1" parent="eJLFgSkFlAxGA1zm92NA-8">
          <mxGeometry y="80" width="200" height="20" as="geometry" />
        </mxCell>
        <mxCell id="eJLFgSkFlAxGA1zm92NA-12" value="DateOfBirth (DATE)" style="text;strokeColor=none;fillColor=none;html=1;fontSize=13;fontStyle=0;verticalAlign=middle;align=left;" vertex="1" parent="eJLFgSkFlAxGA1zm92NA-8">
          <mxGeometry y="110" width="200" height="20" as="geometry" />
        </mxCell>
        <mxCell id="eJLFgSkFlAxGA1zm92NA-13" value="" style="edgeStyle=segmentEdgeStyle;endArrow=classic;html=1;curved=0;rounded=0;endSize=8;startSize=8;exitX=0.5;exitY=1;exitDx=0;exitDy=0;entryX=0.5;entryY=0;entryDx=0;entryDy=0;" edge="1" parent="1" source="eJLFgSkFlAxGA1zm92NA-12" target="eJLFgSkFlAxGA1zm92NA-1">
          <mxGeometry width="50" height="50" relative="1" as="geometry">
            <mxPoint x="420" y="-754" as="sourcePoint" />
            <mxPoint x="430" y="-764" as="targetPoint" />
          </mxGeometry>
        </mxCell>
        <mxCell id="eJLFgSkFlAxGA1zm92NA-14" value="1:N" style="text;strokeColor=none;fillColor=none;html=1;fontSize=10;fontStyle=0;verticalAlign=middle;align=center;" vertex="1" parent="1">
          <mxGeometry x="430" y="-760" width="20" height="20" as="geometry" />
        </mxCell>
        <mxCell id="eJLFgSkFlAxGA1zm92NA-15" value="&lt;span style=&quot;font-weight: normal;&quot;&gt;&lt;font style=&quot;font-size: 13px;&quot;&gt;Sales&lt;/font&gt;&lt;/span&gt;" style="swimlane;whiteSpace=wrap;html=1;startSize=20;" vertex="1" parent="1">
          <mxGeometry x="300" y="-510" width="240" height="190" as="geometry" />
        </mxCell>
        <mxCell id="eJLFgSkFlAxGA1zm92NA-16" value="ID (INTEGER, PRIMARY KEY)" style="text;strokeColor=none;fillColor=none;html=1;fontSize=13;fontStyle=0;verticalAlign=middle;align=left;" vertex="1" parent="eJLFgSkFlAxGA1zm92NA-15">
          <mxGeometry y="20" width="200" height="20" as="geometry" />
        </mxCell>
        <mxCell id="eJLFgSkFlAxGA1zm92NA-17" value="BookID (INTEGER, Foreign Key)" style="text;strokeColor=none;fillColor=none;html=1;fontSize=13;fontStyle=0;verticalAlign=middle;align=left;labelPosition=center;verticalLabelPosition=middle;" vertex="1" parent="eJLFgSkFlAxGA1zm92NA-15">
          <mxGeometry y="50" width="200" height="20" as="geometry" />
        </mxCell>
        <mxCell id="eJLFgSkFlAxGA1zm92NA-18" value="CustomerID (INTEGER, Foreign Key)" style="text;strokeColor=none;fillColor=none;html=1;fontSize=13;fontStyle=0;verticalAlign=middle;align=left;" vertex="1" parent="eJLFgSkFlAxGA1zm92NA-15">
          <mxGeometry y="80" width="200" height="20" as="geometry" />
        </mxCell>
        <mxCell id="eJLFgSkFlAxGA1zm92NA-19" value="SaleDate (DATE)" style="text;strokeColor=none;fillColor=none;html=1;fontSize=13;fontStyle=0;verticalAlign=middle;align=left;" vertex="1" parent="eJLFgSkFlAxGA1zm92NA-15">
          <mxGeometry y="110" width="200" height="20" as="geometry" />
        </mxCell>
        <mxCell id="eJLFgSkFlAxGA1zm92NA-20" value="Quantity (INTEGER)" style="text;strokeColor=none;fillColor=none;html=1;fontSize=13;fontStyle=0;verticalAlign=middle;align=left;" vertex="1" parent="eJLFgSkFlAxGA1zm92NA-15">
          <mxGeometry y="140" width="200" height="20" as="geometry" />
        </mxCell>
        <mxCell id="eJLFgSkFlAxGA1zm92NA-21" value="Total (REAL)" style="text;strokeColor=none;fillColor=none;html=1;fontSize=13;fontStyle=0;verticalAlign=middle;align=left;" vertex="1" parent="eJLFgSkFlAxGA1zm92NA-15">
          <mxGeometry y="170" width="200" height="20" as="geometry" />
        </mxCell>
        <mxCell id="eJLFgSkFlAxGA1zm92NA-22" value="&lt;span style=&quot;font-weight: normal;&quot;&gt;&lt;font style=&quot;font-size: 13px;&quot;&gt;Customers&lt;/font&gt;&lt;/span&gt;" style="swimlane;whiteSpace=wrap;html=1;startSize=20;" vertex="1" parent="1">
          <mxGeometry x="70" y="-510" width="200" height="190" as="geometry" />
        </mxCell>
        <mxCell id="eJLFgSkFlAxGA1zm92NA-23" value="ID (INTEGER, PRIMARY KEY)" style="text;strokeColor=none;fillColor=none;html=1;fontSize=13;fontStyle=0;verticalAlign=middle;align=left;" vertex="1" parent="eJLFgSkFlAxGA1zm92NA-22">
          <mxGeometry y="20" width="200" height="20" as="geometry" />
        </mxCell>
        <mxCell id="eJLFgSkFlAxGA1zm92NA-24" value="FirstName (TEXT)" style="text;strokeColor=none;fillColor=none;html=1;fontSize=13;fontStyle=0;verticalAlign=middle;align=left;labelPosition=center;verticalLabelPosition=middle;" vertex="1" parent="eJLFgSkFlAxGA1zm92NA-22">
          <mxGeometry y="50" width="200" height="20" as="geometry" />
        </mxCell>
        <mxCell id="eJLFgSkFlAxGA1zm92NA-25" value="LastName (TEXT)" style="text;strokeColor=none;fillColor=none;html=1;fontSize=13;fontStyle=0;verticalAlign=middle;align=left;" vertex="1" parent="eJLFgSkFlAxGA1zm92NA-22">
          <mxGeometry y="80" width="200" height="20" as="geometry" />
        </mxCell>
        <mxCell id="eJLFgSkFlAxGA1zm92NA-26" value="Email (TEXT)" style="text;strokeColor=none;fillColor=none;html=1;fontSize=13;fontStyle=0;verticalAlign=middle;align=left;" vertex="1" parent="eJLFgSkFlAxGA1zm92NA-22">
          <mxGeometry y="110" width="200" height="20" as="geometry" />
        </mxCell>
        <mxCell id="eJLFgSkFlAxGA1zm92NA-27" value="Phone (TEXT)" style="text;strokeColor=none;fillColor=none;html=1;fontSize=13;fontStyle=0;verticalAlign=middle;align=left;" vertex="1" parent="eJLFgSkFlAxGA1zm92NA-22">
          <mxGeometry y="140" width="200" height="20" as="geometry" />
        </mxCell>
        <mxCell id="eJLFgSkFlAxGA1zm92NA-28" value="CPF (TEXT)" style="text;strokeColor=none;fillColor=none;html=1;fontSize=13;fontStyle=0;verticalAlign=middle;align=left;" vertex="1" parent="eJLFgSkFlAxGA1zm92NA-22">
          <mxGeometry y="170" width="200" height="20" as="geometry" />
        </mxCell>
        <mxCell id="eJLFgSkFlAxGA1zm92NA-29" value="" style="edgeStyle=segmentEdgeStyle;endArrow=classic;html=1;curved=0;rounded=0;endSize=8;startSize=8;entryX=0.5;entryY=0;entryDx=0;entryDy=0;" edge="1" parent="1" target="eJLFgSkFlAxGA1zm92NA-15">
          <mxGeometry width="50" height="50" relative="1" as="geometry">
            <mxPoint x="419.90000000000003" y="-540" as="sourcePoint" />
            <mxPoint x="419.90000000000003" y="-520" as="targetPoint" />
          </mxGeometry>
        </mxCell>
        <mxCell id="eJLFgSkFlAxGA1zm92NA-30" value="1:N" style="text;strokeColor=none;fillColor=none;html=1;fontSize=10;fontStyle=0;verticalAlign=middle;align=center;" vertex="1" parent="1">
          <mxGeometry x="270" y="-440" width="20" height="20" as="geometry" />
        </mxCell>
        <mxCell id="eJLFgSkFlAxGA1zm92NA-31" value="" style="edgeStyle=elbowEdgeStyle;elbow=horizontal;endArrow=classic;html=1;curved=0;rounded=0;endSize=8;startSize=8;" edge="1" parent="1">
          <mxGeometry width="50" height="50" relative="1" as="geometry">
            <mxPoint x="280" y="-415.1" as="sourcePoint" />
            <mxPoint x="300" y="-415.1" as="targetPoint" />
            <Array as="points">
              <mxPoint x="270" y="-415.1" />
            </Array>
          </mxGeometry>
        </mxCell>
        <mxCell id="eJLFgSkFlAxGA1zm92NA-32" value="N:1" style="text;strokeColor=none;fillColor=none;html=1;fontSize=10;fontStyle=0;verticalAlign=middle;align=center;" vertex="1" parent="1">
          <mxGeometry x="430" y="-540" width="20" height="20" as="geometry" />
        </mxCell>
        <mxCell id="eJLFgSkFlAxGA1zm92NA-33" value="&lt;span style=&quot;font-weight: normal;&quot;&gt;&lt;font style=&quot;font-size: 13px;&quot;&gt;Stock&lt;/font&gt;&lt;/span&gt;" style="swimlane;whiteSpace=wrap;html=1;startSize=20;" vertex="1" parent="1">
          <mxGeometry x="320" y="-1020" width="200" height="100" as="geometry" />
        </mxCell>
        <mxCell id="eJLFgSkFlAxGA1zm92NA-34" value="ID (INTEGER, Primary Key)" style="text;strokeColor=none;fillColor=none;html=1;fontSize=13;fontStyle=0;verticalAlign=middle;align=left;" vertex="1" parent="eJLFgSkFlAxGA1zm92NA-33">
          <mxGeometry y="20" width="200" height="20" as="geometry" />
        </mxCell>
        <mxCell id="eJLFgSkFlAxGA1zm92NA-35" value="Book (INTEGER, Foreign key)" style="text;strokeColor=none;fillColor=none;html=1;fontSize=13;fontStyle=0;verticalAlign=middle;align=left;labelPosition=center;verticalLabelPosition=middle;" vertex="1" parent="eJLFgSkFlAxGA1zm92NA-33">
          <mxGeometry y="50" width="200" height="20" as="geometry" />
        </mxCell>
        <mxCell id="eJLFgSkFlAxGA1zm92NA-36" value="Quantity_available (TEXT)" style="text;strokeColor=none;fillColor=none;html=1;fontSize=13;fontStyle=0;verticalAlign=middle;align=left;" vertex="1" parent="eJLFgSkFlAxGA1zm92NA-33">
          <mxGeometry y="80" width="200" height="20" as="geometry" />
        </mxCell>
        <mxCell id="eJLFgSkFlAxGA1zm92NA-37" value="1:N" style="text;strokeColor=none;fillColor=none;html=1;fontSize=10;fontStyle=0;verticalAlign=middle;align=center;" vertex="1" parent="1">
          <mxGeometry x="430" y="-920" width="20" height="20" as="geometry" />
        </mxCell>
        <mxCell id="eJLFgSkFlAxGA1zm92NA-38" value="" style="edgeStyle=segmentEdgeStyle;endArrow=classic;html=1;curved=0;rounded=0;endSize=8;startSize=8;exitX=0.5;exitY=1;exitDx=0;exitDy=0;entryX=0.5;entryY=0;entryDx=0;entryDy=0;" edge="1" parent="1">
          <mxGeometry width="50" height="50" relative="1" as="geometry">
            <mxPoint x="419.71" y="-920" as="sourcePoint" />
            <mxPoint x="419.71" y="-890" as="targetPoint" />
          </mxGeometry>
        </mxCell>
        <mxCell id="eJLFgSkFlAxGA1zm92NA-39" style="edgeStyle=orthogonalEdgeStyle;rounded=0;orthogonalLoop=1;jettySize=auto;html=1;entryX=1;entryY=0.75;entryDx=0;entryDy=0;" edge="1" parent="1" source="eJLFgSkFlAxGA1zm92NA-40" target="eJLFgSkFlAxGA1zm92NA-4">
          <mxGeometry relative="1" as="geometry" />
        </mxCell>
        <mxCell id="eJLFgSkFlAxGA1zm92NA-40" value="&lt;span style=&quot;font-weight: normal;&quot;&gt;&lt;font style=&quot;font-size: 13px;&quot;&gt;Categories&lt;/font&gt;&lt;/span&gt;" style="swimlane;whiteSpace=wrap;html=1;startSize=20;" vertex="1" parent="1">
          <mxGeometry x="550" y="-672" width="200" height="74" as="geometry" />
        </mxCell>
        <mxCell id="eJLFgSkFlAxGA1zm92NA-41" value="ID (INTEGER, Primary Key)" style="text;strokeColor=none;fillColor=none;html=1;fontSize=13;fontStyle=0;verticalAlign=middle;align=left;" vertex="1" parent="eJLFgSkFlAxGA1zm92NA-40">
          <mxGeometry y="20" width="200" height="20" as="geometry" />
        </mxCell>
        <mxCell id="eJLFgSkFlAxGA1zm92NA-42" value="Name (TEXT)" style="text;strokeColor=none;fillColor=none;html=1;fontSize=13;fontStyle=0;verticalAlign=middle;align=left;labelPosition=center;verticalLabelPosition=middle;" vertex="1" parent="eJLFgSkFlAxGA1zm92NA-40">
          <mxGeometry y="50" width="200" height="20" as="geometry" />
        </mxCell>
        <mxCell id="eJLFgSkFlAxGA1zm92NA-43" value="1:N" style="text;strokeColor=none;fillColor=none;html=1;fontSize=10;fontStyle=0;verticalAlign=middle;align=center;" vertex="1" parent="1">
          <mxGeometry x="530" y="-660" width="20" height="20" as="geometry" />
        </mxCell>
      </root>
    </mxGraphModel>
  </diagram>
</mxfile>
